<svg xmlns="http://www.w3.org/2000/svg">
  <symbol id="gis" width="18" height="21" viewBox="0 0 18 21" fill="none">
    <path fill-rule="evenodd" clip-rule="evenodd"
      d="M1.23926 9.39123C1.25367 5.15065 4.70302 1.72465 8.94361 1.73906C13.1842 1.75347 16.6102 5.20282 16.5958 9.44341V9.53036C16.5436 12.2869 15.0045 14.8347 13.1175 16.826C12.0384 17.9466 10.8333 18.9387 9.52621 19.7825C9.17672 20.0848 8.65832 20.0848 8.30882 19.7825C6.36033 18.5143 4.65019 16.9131 3.25665 15.0521C2.01461 13.4293 1.30942 11.4597 1.23926 9.41732L1.23926 9.39123Z"
      stroke="#CFCFCF" stroke-width="1.5" stroke-linecap="round" stroke-linejoin="round" />
    <circle cx="8.91741" cy="9.53899" r="2.46087" stroke="#CFCFCF" stroke-width="1.5" stroke-linecap="round"
      stroke-linejoin="round" />
  </symbol>

  <symbol id="search" width="21" height="21" viewBox="0 0 21 21" fill="none">
    <circle cx="9.76639" cy="9.76663" r="8.98856" stroke="white" stroke-width="1.5" stroke-linecap="round"
      stroke-linejoin="round" />
    <path d="M16.0181 16.4851L19.5421 20" stroke="white" stroke-width="1.5" stroke-linecap="round"
      stroke-linejoin="round" />
  </symbol>

  <symbol id="call" width="14" height="14" viewBox="0 0 14 14" fill="none">
    <path fill-rule="evenodd" clip-rule="evenodd"
      d="M0.993134 2.24909C1.20402 1.89924 2.36663 0.629259 3.1951 0.667598C3.44296 0.688821 3.66206 0.83807 3.84008 1.01197H3.84077C4.24884 1.41179 5.41967 2.92071 5.4854 3.23838C5.64767 4.01749 4.71854 4.4666 5.00269 5.25187C5.72709 7.02438 6.97529 8.27245 8.74864 8.99611C9.5333 9.28091 9.98245 8.35256 10.7616 8.51413C11.0793 8.58054 12.5891 9.75057 12.9882 10.1593V10.1593C13.1615 10.3366 13.3121 10.5564 13.3326 10.8042C13.3635 11.6771 12.0146 12.8554 11.7517 13.006C11.1314 13.4503 10.3221 13.4421 9.33542 12.9834C6.58227 11.838 2.18244 7.52142 1.01573 4.66446C0.56931 3.68339 0.539184 2.86868 0.993134 2.24909Z"
      stroke="white" stroke-linecap="round" stroke-linejoin="round" />
    <path d="M8.70996 0.833496C11.178 1.1075 13.1266 3.05416 13.404 5.5215" stroke="white" stroke-linecap="round"
      stroke-linejoin="round" />
    <path d="M8.70996 3.19531C9.88996 3.42531 10.812 4.34731 11.042 5.52731" stroke="white" stroke-linecap="round"
      stroke-linejoin="round" />
  </symbol>

  <symbol id="profile" width="17" height="22" viewBox="0 0 17 22" fill="none">
    <circle cx="8.57881" cy="6.27803" r="4.77803" stroke="white" stroke-width="1.5" stroke-linecap="round"
      stroke-linejoin="round" />
    <path fill-rule="evenodd" clip-rule="evenodd"
      d="M1.00002 17.7013C0.998732 17.3654 1.07385 17.0336 1.2197 16.7311C1.67736 15.8157 2.96798 15.3306 4.03892 15.1109C4.81128 14.9461 5.59431 14.836 6.38217 14.7814C7.84084 14.6533 9.30793 14.6533 10.7666 14.7814C11.5544 14.8366 12.3374 14.9467 13.1099 15.1109C14.1808 15.3306 15.4714 15.77 15.9291 16.7311C16.2224 17.3479 16.2224 18.0639 15.9291 18.6807C15.4714 19.6418 14.1808 20.0812 13.1099 20.2917C12.3384 20.4633 11.5551 20.5766 10.7666 20.6304C9.57937 20.731 8.38659 20.7494 7.19681 20.6853C6.92221 20.6853 6.65677 20.6853 6.38217 20.6304C5.59663 20.5772 4.81632 20.464 4.04807 20.2917C2.96798 20.0812 1.68652 19.6418 1.2197 18.6807C1.0746 18.3746 0.999552 18.04 1.00002 17.7013Z"
      stroke="white" stroke-width="1.5" stroke-linecap="round" stroke-linejoin="round" />
  </symbol>

  <symbol id="arrow" width="24" height="14" viewBox="0 0 24 14" fill="none">
    <path
      d="M13.0607 0.939577C12.4749 0.353795 11.5252 0.353801 10.9394 0.939592L1.3935 10.4856C0.807718 11.0714 0.807724 12.0211 1.39351 12.6069C1.9793 13.1927 2.92905 13.1927 3.51483 12.6069L12.0001 4.12156L20.4854 12.6068C21.0712 13.1926 22.0209 13.1926 22.6067 12.6068C23.1925 12.021 23.1925 11.0712 22.6067 10.4855L13.0607 0.939577ZM13.5001 4.0001L13.5 2.00023L10.5 2.00025L10.5001 4.00012L13.5001 4.0001Z"
      fill="#222021" />
  </symbol>
<symbol id="youtube" width="20" height="19" viewBox="0 0 20 19" fill="none">
    <g clip-path="url(#clip0_1_1393)">
      <path
        d="M15.8125 0H3.93748C1.96982 0 0.375 1.59482 0.375 3.56248V15.4375C0.375 17.4052 1.96982 19 3.93748 19H15.8125C17.7802 19 19.375 17.4051 19.375 15.4375V3.56248C19.375 1.59482 17.7802 0 15.8125 0ZM15.7116 11.6268C15.6474 12.4177 15.0466 13.427 14.207 13.5731C11.5173 13.7821 8.33006 13.756 5.54422 13.5731C4.67496 13.4638 4.10379 12.4165 4.03967 11.6268C3.9043 9.96667 3.9043 9.02141 4.03967 7.36129C4.10379 6.57161 4.68923 5.53015 5.54422 5.43517C8.29804 5.20359 11.5031 5.25347 14.207 5.43517C15.1736 5.47078 15.6474 6.46711 15.7116 7.25798C15.8445 8.9181 15.8445 9.96667 15.7116 11.6268Z"
        fill="white" />
      <path d="M8.6875 11.875L12.25 9.5L8.6875 7.125V11.875Z" fill="white" />
    </g>
    <defs>
      <clipPath id="clip0_1_1393">
        <rect width="19" height="19" fill="white" transform="translate(0.375)" />
      </clipPath>
    </defs>
  </symbol>

  <symbol id="instagram" width="19" height="19" viewBox="0 0 19 19" fill="none">
    <g clip-path="url(#clip0_1_1406)">
      <path
        d="M11.1799 8.27967C10.8033 7.75231 10.1855 7.40576 9.49239 7.40576C8.79929 7.40576 8.18152 7.75231 7.80484 8.27967C7.56376 8.62622 7.41309 9.04811 7.41309 9.50013C7.41309 10.6453 8.34727 11.5794 9.49239 11.5794C10.6375 11.5794 11.5717 10.6453 11.5717 9.50013C11.5717 9.04811 11.421 8.62622 11.1799 8.27967Z"
        fill="white" />
      <path
        d="M12.4909 8.29468C12.6416 8.59603 12.732 9.07818 12.732 9.50007C12.732 11.278 11.2855 12.7396 9.49247 12.7396C7.69945 12.7396 6.25298 11.2931 6.25298 9.50007C6.25298 9.06312 6.34338 8.59603 6.49405 8.29468H4.6709V13.1313C4.6709 13.7641 5.22839 14.3216 5.86122 14.3216H13.1237C13.7565 14.3216 14.314 13.7641 14.314 13.1313V8.29468H12.4909Z"
        fill="white" />
      <path d="M13.7717 4.94964H12.0239V6.9536H14.0128V5.20578V4.93457L13.7717 4.94964Z" fill="white" />
      <path
        d="M14.2236 0.00891113H4.7613C2.13957 0.00891113 0 2.14848 0 4.77021V14.2476C0 16.8543 2.13957 18.9938 4.7613 18.9938H14.2387C16.8604 18.9938 19 16.8543 19 14.2325V4.77021C18.9849 2.14848 16.8454 0.00891113 14.2236 0.00891113ZM15.3688 8.28092V13.1326C15.3688 14.3983 14.3894 15.3777 13.1237 15.3777H5.86122C4.59556 15.3777 3.61618 14.3983 3.61618 13.1326V8.28092V5.87013C3.61618 4.60447 4.59556 3.62509 5.86122 3.62509H13.1237C14.3894 3.62509 15.3688 4.60447 15.3688 5.87013V8.28092Z"
        fill="white" />
    </g>
    <defs>
      <clipPath id="clip0_1_1406">
        <rect width="19" height="19" fill="white" />
      </clipPath>
    </defs>
  </symbol>
</svg>