<svg xmlns="http://www.w3.org/2000/svg">
  <symbol viewBox="0 0 24 24" id="gis">
    <path fill-rule="evenodd" clip-rule="evenodd" d="M1.23926 9.39123C1.25367 5.15065 4.70302 1.72465 8.94361 1.73906C13.1842 1.75347 16.6102 5.20282 16.5958 9.44341V9.53036C16.5436 12.2869 15.0045 14.8347 13.1175 16.826C12.0384 17.9466 10.8333 18.9387 9.52621 19.7825C9.17672 20.0848 8.65832 20.0848 8.30882 19.7825C6.36033 18.5143 4.65019 16.9131 3.25665 15.0521C2.01461 13.4293 1.30942 11.4597 1.23926 9.41732L1.23926 9.39123Z" stroke="#CFCFCF" stroke-width="1.5" stroke-linecap="round" stroke-linejoin="round"/>
  </symbol>

<svg xmlns="http://www.w3.org/2000/svg">
<symbol viewBox="0 0 18 21" id="location">
  <path fill-rule="evenodd" clip-rule="evenodd" d="M1.23926 9.39123C1.25367 5.15065 4.70302 1.72465 8.94361 1.73906C13.1842 1.75347 16.6102 5.20282 16.5958 9.44341V9.53036C16.5436 12.2869 15.0045 14.8347 13.1175 16.826C12.0384 17.9466 10.8333 18.9387 9.52621 19.7825C9.17672 20.0848 8.65832 20.0848 8.30882 19.7825C6.36033 18.5143 4.65019 16.9131 3.25665 15.0521C2.01461 13.4293 1.30942 11.4597 1.23926 9.41732L1.23926 9.39123Z" stroke="#CFCFCF" stroke-width="1.5" stroke-linecap="round" stroke-linejoin="round"/>
</symbol>

  

  <symbol viewBox="0 0 24 24" id="sun">
    <path d="M12 3v2.25m6.364.386l-1.
  591 1.591M21 12h-2.25m-.386 6.364l-1.
  591-1.591M12 18.75V21m-4.773-4.227l-1.591 
  1.591M5.25 12H3m4.227-4.773L5.636 5.636M15.75 
  12a3.75 3.75 0 11-7.5 0 3.75 3.75 0 017.5 0z" />
  </symbol>

  <symbol viewBox="0 0 24 24" id="call-phone">

  <g id="Calling">
<path id="Stroke 1" fill-rule="evenodd" clip-rule="evenodd" d="M0.993134 2.24909C1.20402 1.89924 2.36663 0.629259 3.1951 0.667598C3.44296 0.688821 3.66206 0.83807 3.84008 1.01197H3.84077C4.24884 1.41179 5.41967 2.92071 5.4854 3.23838C5.64767 4.01749 4.71854 4.4666 5.00269 5.25187C5.72709 7.02438 6.97529 8.27245 8.74864 8.99611C9.5333 9.28091 9.98245 8.35256 10.7616 8.51413C11.0793 8.58054 12.5891 9.75057 12.9882 10.1593V10.1593C13.1615 10.3366 13.3121 10.5564 13.3326 10.8042C13.3635 11.6771 12.0146 12.8554 11.7517 13.006C11.1314 13.4503 10.3221 13.4421 9.33542 12.9834C6.58227 11.838 2.18244 7.52142 1.01573 4.66446C0.56931 3.68339 0.539184 2.86868 0.993134 2.24909Z" stroke="white" stroke-linecap="round" stroke-linejoin="round"/>
<path id="Path" d="M8.70996 0.833496C11.178 1.1075 13.1266 3.05416 13.404 5.5215" stroke="white" stroke-linecap="round" stroke-linejoin="round"/>
<path id="Path_2" d="M8.70996 3.19531C9.88996 3.42531 10.812 4.34731 11.042 5.52731" stroke="white" stroke-linecap="round" stroke-linejoin="round"/>
</g>

  </symbol>


</svg>

